# xmcd CD database file
#
# Track frame offsets:
#	150
#	22502
#	44974
#	67766
#	87498
#	107505
#	126589
#	145228
#	163640
#	186412
#	208442
#	232947
#	251921
#	262350
#	279487
#	301957
#
# Disc length: 4298 seconds
#
# Revision: 0
# Processed by: cddbd v1.5.1PL0 Copyright (c) Steve Scherf et al.
# Submitted via: CDex 1.51
#
DISCID=f410c810
DTITLE=El Gran Combo De Puerto Rico - Super Exitos
DYEAR=1999
DGENRE=Salsa
TTITLE0=Se Me Fue
TTITLE1=Un Verano En New York
TTITLE2=Y No Hago Mas Na
TTITLE3=Ojos Chinos
TTITLE4=La Muerte
TTITLE5=Gotas De Lluvia
TTITLE6=Con Eso
TTITLE7=Falsaria
TTITLE8=Carbonerito
TTITLE9=Vagabundo
TTITLE10=Amame
TTITLE11=Azuquita Pa´l Cafe
TTITLE12=Milonga Sentiemntal
TTITLE13=Asi Son
TTITLE14=Resignacion
TTITLE15=No Hay Cama Pa´ Tanta Gente
EXTD=YEAR: 1999
EXTT0=
EXTT1=
EXTT2=
EXTT3=
EXTT4=
EXTT5=
EXTT6=
EXTT7=
EXTT8=
EXTT9=
EXTT10=
EXTT11=
EXTT12=
EXTT13=
EXTT14=
EXTT15=
PLAYORDER=
